<?xml version="1.0" standalone="no"?><!DOCTYPE svg PUBLIC "-//W3C//DTD SVG 1.1//EN" "http://www.w3.org/Graphics/SVG/1.1/DTD/svg11.dtd"><svg t="1491190220170" class="icon" style="" viewBox="0 0 1024 1024" version="1.1" xmlns="http://www.w3.org/2000/svg" p-id="2918" xmlns:xlink="http://www.w3.org/1999/xlink" width="64" height="64"><defs><style type="text/css"></style></defs><path d="M512 64c-185.281 0-336 150.719-336 336 0 70.587 21.958 138.304 63.424 195.891l8.818 12.359 241.363 340.54C494.896 955.844 503.209 960 512 960c8.79 0 17.103-4.156 22.395-11.21L772.75 612.297 784.509 596C826.043 538.304 848 470.587 848 400 848 214.719 697.281 64 512 64zM512 512c-61.77 0-112-50.23-112-112s50.23-112 112-112c61.77 0 112 50.23 112 112S573.77 512 512 512z" p-id="2919" fill="#d81e06"></path></svg>